# Blender v2.80 (sub 75) OBJ File: 'building.blend'
# www.blender.org
mtllib vertices.mtl
o Cube_Cube.001
v -2.304063 -0.056731 2.304063
v -2.304063 0.056731 2.304063
v -2.304063 -0.056731 -2.304063
v -2.304063 0.056731 -2.304063
v 2.304063 -0.056731 2.304063
v 2.304063 0.056731 2.304063
v 2.304063 -0.056731 -2.304063
v 2.304063 0.056731 -2.304063
v -2.125717 0.056731 2.125717
v -2.125717 0.056731 -2.125717
v 2.125717 0.056731 -2.125717
v 2.125717 0.056731 2.125717
v -2.125717 2.718518 2.125717
v -2.125717 2.718518 -2.125717
v 2.125717 2.718518 -2.125717
v 2.125717 2.718518 2.125717
v -2.125717 2.873980 2.125717
v -2.125717 2.873980 -2.125717
v 2.125717 2.873980 -2.125717
v 2.125717 2.873980 2.125717
v -2.125717 5.067937 2.125717
v -2.125717 5.067937 -2.125717
v 2.125717 5.067937 -2.125717
v 2.125717 5.067937 2.125717
v -2.527765 5.402514 2.527765
v -2.527765 5.402514 -2.527765
v 2.527765 5.402514 -2.527765
v 2.527765 5.402514 2.527765
v -2.747470 5.019007 2.747470
v -2.747470 5.019007 -2.747470
v 2.747470 5.019007 -2.747470
v 2.747470 5.019007 2.747470
v -3.107861 5.221189 3.107861
v -3.107861 5.221189 -3.107861
v 3.107861 5.221189 -3.107861
v 3.107861 5.221189 3.107861
v -1.563003 7.186578 0.396834
v -1.563003 7.186578 -0.396834
v 1.563003 7.186578 -0.396834
v 1.563003 7.186578 0.396834
v 2.774214 5.418824 2.774214
v 3.020663 5.435134 3.020663
v 3.020663 5.435134 -3.020663
v 2.774214 5.418824 -2.774214
v -2.774214 5.418824 -2.774214
v -3.020663 5.435134 -3.020663
v -3.020663 5.435134 3.020663
v -2.774214 5.418824 2.774214
v 2.774214 5.270433 2.774214
v 3.020663 5.286743 3.020663
v 3.020663 5.286743 -3.020663
v 2.774214 5.270433 -2.774214
v -2.774214 5.270433 -2.774214
v -3.020663 5.286743 -3.020663
v -3.020663 5.286743 3.020663
v -2.774214 5.270433 2.774214
v 0.768021 -0.056731 -2.304063
v -0.768021 -0.056731 -2.304063
v -0.768021 0.056731 -2.304063
v 0.768021 0.056731 -2.304063
v -0.768021 -0.056731 2.304063
v 0.768021 -0.056731 2.304063
v 0.768021 0.056731 2.304063
v -0.768021 0.056731 2.304063
v -0.708572 0.056731 -2.125717
v 0.708572 0.056731 -2.125717
v 0.708572 0.056731 2.125717
v -0.708572 0.056731 2.125717
v -0.708572 2.718518 -2.125717
v 0.708572 2.718518 -2.125717
v 0.708572 2.718518 2.125717
v -0.708572 2.718518 2.125717
v -0.708572 2.873980 -2.125717
v 0.708572 2.873980 -2.125717
v 0.708572 2.873980 2.125717
v -0.708572 2.873980 2.125717
v -0.708572 5.067937 -2.125717
v 0.708572 5.067937 -2.125717
v 0.708572 5.067937 2.125717
v -0.708572 5.067937 2.125717
v -0.842588 5.402514 -2.527765
v 0.842588 5.402514 -2.527765
v 0.842588 5.402514 2.527765
v -0.842588 5.402514 2.527765
v -0.915823 5.019007 -2.747470
v 0.915823 5.019007 -2.747470
v 0.915823 5.019007 2.747470
v -0.915823 5.019007 2.747470
v -1.089037 5.248249 -3.267113
v 1.089038 5.248249 -3.267113
v 1.089037 5.248249 3.267113
v -1.089038 5.248249 3.267113
v -0.521001 7.186578 -0.396834
v 0.521001 7.186578 -0.396834
v 0.521001 7.186578 0.396834
v -0.521001 7.186578 0.396834
v 0.924738 5.418824 -2.774214
v -0.924738 5.418824 -2.774214
v 1.006888 5.435134 -3.020663
v -1.006888 5.435134 -3.020663
v -0.924738 5.418824 2.774214
v 0.924738 5.418824 2.774214
v -1.006888 5.435134 3.020663
v 1.006888 5.435134 3.020663
v 0.924738 5.270433 -2.774214
v -0.924738 5.270433 -2.774214
v 1.006888 5.286743 -3.020663
v -1.006888 5.286743 -3.020663
v -0.924738 5.270433 2.774214
v 0.924738 5.270433 2.774214
v -1.006888 5.286743 3.020663
v 1.006888 5.286743 3.020663
v -1.846432 0.031877 1.846432
v -1.846432 4.440471 1.846432
v -1.846432 0.031877 -1.846432
v -1.846432 4.440471 -1.846432
v 1.846432 0.031877 1.846432
v 1.846432 4.440471 1.846432
v 1.846432 0.031877 -1.846432
v 1.846432 4.440471 -1.846432
v 0.685352 0.031877 -1.846432
v -0.685352 0.031877 -1.846432
v -0.615477 4.440471 -1.846432
v 0.615477 4.440471 -1.846432
v -0.615477 0.031877 1.846432
v 0.615477 0.031877 1.846432
v 0.615477 4.440471 1.846432
v -0.615477 4.440471 1.846432
v -1.846432 2.697722 1.846432
v -1.846432 2.697722 -1.846432
v 1.846432 2.697722 -1.846432
v 1.846432 2.697722 1.846432
v 0.615477 2.697722 1.846432
v -0.615477 2.697722 1.846432
v -0.685352 2.697722 -1.846432
v 0.685352 2.697722 -1.846432
vt 0.625000 0.000000
vt 0.375000 0.250000
vt 0.375000 0.000000
vt 0.625000 0.416667
vt 0.375000 0.500000
vt 0.375000 0.416667
vt 0.625000 0.500000
vt 0.375000 0.750000
vt 0.625000 0.916667
vt 0.375000 1.000000
vt 0.375000 0.916667
vt 0.291667 0.750000
vt 0.291667 0.500000
vt 0.625000 0.250000
vt 0.625000 0.250000
vt 0.625000 0.750000
vt 0.625000 0.833333
vt 0.625000 0.833333
vt 0.625000 0.833333
vt 0.625000 0.333333
vt 0.625000 0.333333
vt 0.625000 0.750000
vt 0.625000 0.500000
vt 0.625000 0.750000
vt 0.625000 0.750000
vt 0.625000 0.333333
vt 0.625000 0.500000
vt 0.625000 0.000000
vt 0.625000 0.250000
vt 0.625000 0.000000
vt 0.625000 0.250000
vt 0.625000 0.250000
vt 0.625000 0.000000
vt 0.625000 0.833333
vt 0.625000 0.333333
vt 0.875000 0.500000
vt 0.875000 0.750000
vt 0.875000 0.750000
vt 0.625000 0.833333
vt 0.625000 0.333333
vt 0.625000 0.500000
vt 0.625000 0.750000
vt 0.625000 0.500000
vt 0.625000 0.750000
vt 0.625000 0.750000
vt 0.625000 0.750000
vt 0.625000 0.500000
vt 0.625000 0.500000
vt 0.625000 0.333333
vt 0.625000 0.833333
vt 0.625000 0.750000
vt 0.625000 0.833333
vt 0.625000 0.250000
vt 0.625000 0.333333
vt 0.625000 0.500000
vt 0.625000 0.750000
vt 0.625000 0.000000
vt 0.625000 0.250000
vt 0.625000 0.500000
vt 0.791667 0.750000
vt 0.791667 0.750000
vt 0.625000 0.000000
vt 0.708333 0.500000
vt 0.708333 0.500000
vt 0.875000 0.500000
vt 0.791667 0.750000
vt 0.791667 0.500000
vt 0.875000 0.750000
vt 0.875000 0.500000
vt 0.708333 0.750000
vt 0.708333 0.750000
vt 0.791667 0.500000
vt 0.708333 0.500000
vt 0.708333 0.500000
vt 0.875000 0.750000
vt 0.791667 0.750000
vt 0.791667 0.750000
vt 0.791667 0.750000
vt 0.625000 0.750000
vt 0.625000 0.500000
vt 0.625000 0.500000
vt 0.875000 0.500000
vt 0.875000 0.750000
vt 0.791667 0.500000
vt 0.791667 0.500000
vt 0.708333 0.500000
vt 0.708333 0.500000
vt 0.791667 0.750000
vt 0.625000 0.750000
vt 0.625000 0.500000
vt 0.875000 0.500000
vt 0.875000 0.750000
vt 0.875000 0.500000
vt 0.625000 0.750000
vt 0.708333 0.750000
vt 0.708333 0.750000
vt 0.791667 0.500000
vt 0.791667 0.500000
vt 0.708333 0.750000
vt 0.708333 0.750000
vt 0.625000 0.500000
vt 0.708333 0.500000
vt 0.875000 0.750000
vt 0.791667 0.500000
vt 0.875000 0.500000
vt 0.708333 0.750000
vt 0.625000 0.416667
vt 0.625000 0.416667
vt 0.625000 1.000000
vt 0.625000 0.916667
vt 0.625000 1.000000
vt 0.625000 0.916667
vt 0.625000 1.000000
vt 0.625000 0.916667
vt 0.625000 0.416667
vt 0.625000 0.416667
vt 0.625000 0.916667
vt 0.625000 1.000000
vt 0.625000 0.416667
vt 0.625000 0.916667
vt 0.625000 1.000000
vt 0.625000 0.416667
vt 0.526173 0.250000
vt 0.625000 0.000000
vt 0.526173 0.000000
vt 0.625000 1.000000
vt 0.625000 1.000000
vt 0.625000 0.916667
vt 0.208333 0.500000
vt 0.125000 0.750000
vt 0.125000 0.500000
vt 0.208333 0.750000
vt 0.375000 0.833333
vt 0.375000 0.333333
vt 0.526173 0.416667
vt 0.625000 0.500000
vt 0.625000 0.416667
vt 0.526173 0.750000
vt 0.526173 0.500000
vt 0.526173 1.000000
vt 0.625000 0.916667
vt 0.526173 0.916667
vt 0.291667 0.500000
vt 0.375000 0.750000
vt 0.375000 0.500000
vt 0.791667 0.750000
vt 0.875000 0.500000
vt 0.791667 0.500000
vt 0.625000 0.750000
vt 0.708333 0.500000
vt 0.708333 0.750000
vt 0.125000 0.750000
vt 0.208333 0.500000
vt 0.125000 0.500000
vt 0.208333 0.750000
vt 0.526173 0.833333
vt 0.625000 0.833333
vt 0.526173 0.333333
vt 0.625000 0.250000
vt 0.625000 0.333333
vt 0.375000 0.333333
vt 0.375000 0.250000
vt 0.375000 0.916667
vt 0.375000 0.833333
vt 0.375000 1.000000
vt 0.375000 0.416667
vt 0.375000 0.000000
vt 0.625000 0.000000
vt 0.625000 1.000000
vt 0.291667 0.750000
vt 0.875000 0.750000
vn -1.0000 0.0000 0.0000
vn 0.0000 0.0000 -1.0000
vn 1.0000 0.0000 0.0000
vn 0.0000 0.0000 1.0000
vn 0.0000 -1.0000 0.0000
vn 0.0000 1.0000 0.0000
vn -0.9260 0.3774 0.0000
vn 0.8796 0.4757 0.0000
vn 0.9260 0.3774 0.0000
vn 0.0000 -0.9969 0.0785
vn 0.0000 -0.9969 -0.0785
vn 0.0000 -0.9149 0.4036
vn 0.0000 -0.9149 -0.4036
vn 0.4893 -0.8721 0.0000
vn -0.4893 -0.8721 0.0000
vn -0.0785 -0.9969 0.0000
vn 0.0000 0.7968 0.6042
vn 0.0785 -0.9969 0.0000
vn 0.0000 0.7968 -0.6042
vn -0.8796 0.4757 0.0000
vn 0.0000 0.7668 0.6419
vn 0.0000 0.7668 -0.6419
vn 0.0000 0.9978 0.0660
vn 0.0000 0.9978 -0.0660
vn -0.0660 0.9978 0.0000
vn 0.0660 0.9978 0.0000
vn -0.0773 0.4032 -0.9119
vn 0.0773 0.4032 0.9119
vn 0.0252 -0.8824 -0.4698
vn -0.0252 -0.8824 0.4698
vn 0.0000 -0.9972 -0.0743
vn -0.9966 0.0000 -0.0829
vn 0.0000 0.9961 0.0886
vn 0.9966 0.0000 -0.0829
vn 0.0252 -0.8824 0.4698
vn -0.0252 -0.8824 -0.4698
vn -0.0773 0.4032 0.9119
vn 0.0773 0.4032 -0.9119
usemtl None
s off
f 2/1/1 3/2/1 1/3/1
f 60/4/2 7/5/2 57/6/2
f 8/7/3 5/8/3 7/5/3
f 64/9/4 1/10/4 61/11/4
f 7/5/5 62/12/5 57/13/5
f 2/1/6 10/14/6 4/15/6
f 12/16/4 71/17/4 67/18/4
f 63/19/6 12/16/6 67/18/6
f 59/20/6 10/14/6 65/21/6
f 8/7/6 12/16/6 6/22/6
f 15/23/3 20/24/3 16/25/3
f 10/14/2 69/26/2 65/21/2
f 11/27/3 16/25/3 12/16/3
f 9/28/1 14/29/1 10/14/1
f 17/30/1 22/31/1 18/32/1
f 13/33/1 18/32/1 14/29/1
f 16/25/4 75/34/4 71/17/4
f 14/29/2 73/35/2 69/26/2
f 46/36/7 33/37/7 47/38/7
f 20/24/4 79/39/4 75/34/4
f 18/32/2 77/40/2 73/35/2
f 19/41/3 24/42/3 20/24/3
f 27/43/8 40/44/8 28/45/8
f 42/46/9 35/47/9 43/48/9
f 22/31/10 85/49/10 77/40/10
f 24/42/11 87/50/11 79/39/11
f 32/51/12 91/52/12 87/50/12
f 30/53/13 89/54/13 85/49/13
f 31/55/14 36/56/14 32/51/14
f 29/57/15 34/58/15 30/53/15
f 23/59/16 32/51/16 24/42/16
f 47/38/17 92/60/17 103/61/17
f 21/62/18 30/53/18 22/31/18
f 43/48/19 90/63/19 99/64/19
f 38/65/6 96/66/6 93/67/6
f 25/68/20 38/65/20 26/69/20
f 83/70/21 40/44/21 95/71/21
f 81/72/22 38/65/22 93/67/22
f 27/43/23 97/73/23 82/74/23
f 48/75/4 109/76/4 101/77/4
f 25/68/24 101/77/24 84/78/24
f 41/79/3 52/80/3 44/81/3
f 28/45/25 44/81/25 27/43/25
f 45/82/1 56/83/1 48/75/1
f 26/69/26 48/75/26 25/68/26
f 46/36/4 108/84/4 100/85/4
f 52/80/23 107/86/23 105/87/23
f 56/83/24 111/88/24 109/76/24
f 49/89/25 51/90/25 52/80/25
f 53/91/26 55/92/26 56/83/26
f 44/81/2 105/87/2 97/73/2
f 47/38/3 54/93/3 46/36/3
f 43/48/1 50/94/1 42/46/1
f 42/46/2 112/95/2 104/96/2
f 103/61/2 55/92/2 47/38/2
f 104/96/2 111/88/2 103/61/2
f 98/97/2 53/91/2 45/82/2
f 97/73/2 106/98/2 98/97/2
f 49/89/24 112/95/24 50/94/24
f 109/76/24 112/95/24 110/99/24
f 53/91/23 108/84/23 54/93/23
f 105/87/23 108/84/23 106/98/23
f 99/64/4 51/90/4 43/48/4
f 100/85/4 107/86/4 99/64/4
f 28/45/24 102/100/24 41/79/24
f 83/70/24 101/77/24 102/100/24
f 102/100/4 49/89/4 41/79/4
f 101/77/4 110/99/4 102/100/4
f 26/69/23 98/97/23 45/82/23
f 81/72/23 97/73/23 98/97/23
f 82/74/22 39/101/22 27/43/22
f 81/72/22 94/102/22 82/74/22
f 84/78/21 37/103/21 25/68/21
f 83/70/21 96/66/21 84/78/21
f 94/102/6 40/44/6 39/101/6
f 93/67/6 95/71/6 94/102/6
f 46/36/27 89/104/27 34/105/27
f 99/64/19 89/104/19 100/85/19
f 42/46/28 91/106/28 36/56/28
f 103/61/17 91/106/17 104/96/17
f 31/55/29 90/107/29 35/47/29
f 86/108/13 89/54/13 90/107/13
f 29/109/30 92/110/30 33/111/30
f 88/112/12 91/52/12 92/110/12
f 21/113/11 88/112/11 29/109/11
f 79/39/11 88/112/11 80/114/11
f 23/59/10 86/108/10 31/55/10
f 77/40/10 86/108/10 78/115/10
f 74/116/2 23/59/2 19/41/2
f 73/35/2 78/115/2 74/116/2
f 76/117/4 21/113/4 17/118/4
f 75/34/4 80/114/4 76/117/4
f 70/119/2 19/41/2 15/23/2
f 69/26/2 74/116/2 70/119/2
f 72/120/4 17/118/4 13/121/4
f 71/17/4 76/117/4 72/120/4
f 66/122/2 15/23/2 11/27/2
f 130/123/3 114/124/3 129/125/3
f 60/4/6 11/27/6 8/7/6
f 60/4/6 65/21/6 66/122/6
f 64/9/6 9/126/6 2/127/6
f 64/9/6 67/18/6 68/128/6
f 68/128/4 13/121/4 9/126/4
f 67/18/4 72/120/4 68/128/4
f 58/129/5 1/130/5 3/131/5
f 57/13/5 61/132/5 58/129/5
f 6/22/4 62/133/4 5/8/4
f 63/19/4 61/11/4 62/133/4
f 4/15/2 58/134/2 3/2/2
f 59/20/2 57/6/2 58/134/2
f 136/135/4 120/136/4 124/137/4
f 132/138/1 120/136/1 131/139/1
f 129/140/2 128/141/2 134/142/2
f 121/143/6 117/144/6 119/145/6
f 128/146/5 116/147/5 123/148/5
f 118/149/5 124/150/5 120/136/5
f 127/151/5 123/148/5 124/150/5
f 113/152/6 122/153/6 115/154/6
f 125/155/6 121/143/6 122/153/6
f 133/156/2 118/149/2 132/138/2
f 134/142/2 127/157/2 133/156/2
f 135/158/4 116/159/4 130/123/4
f 136/135/4 123/160/4 135/158/4
f 136/135/31 69/26/31 70/119/31
f 122/161/4 130/123/4 115/162/4
f 125/163/2 133/156/2 126/164/2
f 126/164/2 132/138/2 117/144/2
f 113/165/2 134/142/2 125/163/2
f 117/144/1 131/139/1 119/145/1
f 119/145/4 136/135/4 121/166/4
f 115/162/3 129/125/3 113/167/3
f 66/122/32 136/135/32 70/119/32
f 65/21/33 121/143/33 66/122/33
f 65/21/34 135/158/34 122/153/34
f 2/1/1 4/15/1 3/2/1
f 60/4/2 8/7/2 7/5/2
f 8/7/3 6/22/3 5/8/3
f 64/9/4 2/127/4 1/10/4
f 7/5/5 5/8/5 62/12/5
f 2/1/6 9/28/6 10/14/6
f 12/16/4 16/25/4 71/17/4
f 63/19/6 6/22/6 12/16/6
f 59/20/6 4/15/6 10/14/6
f 8/7/6 11/27/6 12/16/6
f 15/23/3 19/41/3 20/24/3
f 10/14/2 14/29/2 69/26/2
f 11/27/3 15/23/3 16/25/3
f 9/28/1 13/33/1 14/29/1
f 17/30/1 21/62/1 22/31/1
f 13/33/1 17/30/1 18/32/1
f 16/25/4 20/24/4 75/34/4
f 14/29/2 18/32/2 73/35/2
f 46/36/7 34/105/7 33/37/7
f 20/24/4 24/42/4 79/39/4
f 18/32/2 22/31/2 77/40/2
f 19/41/3 23/59/3 24/42/3
f 27/43/8 39/101/8 40/44/8
f 42/46/9 36/56/9 35/47/9
f 22/31/10 30/53/10 85/49/10
f 24/42/11 32/51/11 87/50/11
f 32/51/35 36/56/35 91/52/35
f 30/53/36 34/58/36 89/54/36
f 31/55/14 35/47/14 36/56/14
f 29/57/15 33/168/15 34/58/15
f 23/59/16 31/55/16 32/51/16
f 47/38/37 33/37/37 92/60/37
f 21/62/18 29/57/18 30/53/18
f 43/48/38 35/47/38 90/63/38
f 38/65/6 37/103/6 96/66/6
f 25/68/20 37/103/20 38/65/20
f 83/70/21 28/45/21 40/44/21
f 81/72/22 26/69/22 38/65/22
f 27/43/23 44/81/23 97/73/23
f 48/75/4 56/83/4 109/76/4
f 25/68/24 48/75/24 101/77/24
f 41/79/3 49/89/3 52/80/3
f 28/45/25 41/79/25 44/81/25
f 45/82/1 53/91/1 56/83/1
f 26/69/26 45/82/26 48/75/26
f 46/36/4 54/93/4 108/84/4
f 52/80/23 51/90/23 107/86/23
f 56/83/24 55/92/24 111/88/24
f 49/89/25 50/94/25 51/90/25
f 53/91/26 54/93/26 55/92/26
f 44/81/2 52/80/2 105/87/2
f 47/38/3 55/92/3 54/93/3
f 43/48/1 51/90/1 50/94/1
f 42/46/2 50/94/2 112/95/2
f 103/61/2 111/88/2 55/92/2
f 104/96/2 112/95/2 111/88/2
f 98/97/2 106/98/2 53/91/2
f 97/73/2 105/87/2 106/98/2
f 49/89/24 110/99/24 112/95/24
f 109/76/24 111/88/24 112/95/24
f 53/91/23 106/98/23 108/84/23
f 105/87/23 107/86/23 108/84/23
f 99/64/4 107/86/4 51/90/4
f 100/85/4 108/84/4 107/86/4
f 28/45/24 83/70/24 102/100/24
f 83/70/24 84/78/24 101/77/24
f 102/100/4 110/99/4 49/89/4
f 101/77/4 109/76/4 110/99/4
f 26/69/23 81/72/23 98/97/23
f 81/72/23 82/74/23 97/73/23
f 82/74/22 94/102/22 39/101/22
f 81/72/22 93/67/22 94/102/22
f 84/78/21 96/66/21 37/103/21
f 83/70/21 95/71/21 96/66/21
f 94/102/6 95/71/6 40/44/6
f 93/67/6 96/66/6 95/71/6
f 46/36/19 100/85/19 89/104/19
f 99/64/19 90/63/19 89/104/19
f 42/46/17 104/96/17 91/106/17
f 103/61/17 92/60/17 91/106/17
f 31/55/13 86/108/13 90/107/13
f 86/108/13 85/49/13 89/54/13
f 29/109/12 88/112/12 92/110/12
f 88/112/12 87/50/12 91/52/12
f 21/113/11 80/114/11 88/112/11
f 79/39/11 87/50/11 88/112/11
f 23/59/10 78/115/10 86/108/10
f 77/40/10 85/49/10 86/108/10
f 74/116/2 78/115/2 23/59/2
f 73/35/2 77/40/2 78/115/2
f 76/117/4 80/114/4 21/113/4
f 75/34/4 79/39/4 80/114/4
f 70/119/2 74/116/2 19/41/2
f 69/26/2 73/35/2 74/116/2
f 72/120/4 76/117/4 17/118/4
f 71/17/4 75/34/4 76/117/4
f 66/122/2 70/119/2 15/23/2
f 130/123/3 116/159/3 114/124/3
f 60/4/6 66/122/6 11/27/6
f 60/4/6 59/20/6 65/21/6
f 64/9/6 68/128/6 9/126/6
f 64/9/6 63/19/6 67/18/6
f 68/128/4 72/120/4 13/121/4
f 67/18/4 71/17/4 72/120/4
f 58/129/5 61/132/5 1/130/5
f 57/13/5 62/12/5 61/132/5
f 6/22/4 63/19/4 62/133/4
f 63/19/4 64/9/4 61/11/4
f 4/15/2 59/20/2 58/134/2
f 59/20/2 60/4/2 57/6/2
f 136/135/4 131/139/4 120/136/4
f 132/138/1 118/149/1 120/136/1
f 129/140/2 114/169/2 128/141/2
f 121/143/6 126/170/6 117/144/6
f 128/146/5 114/171/5 116/147/5
f 118/149/5 127/151/5 124/150/5
f 127/151/5 128/146/5 123/148/5
f 113/152/6 125/155/6 122/153/6
f 125/155/6 126/170/6 121/143/6
f 133/156/2 127/157/2 118/149/2
f 134/142/2 128/141/2 127/157/2
f 135/158/4 123/160/4 116/159/4
f 136/135/4 124/137/4 123/160/4
f 136/135/31 135/158/31 69/26/31
f 122/161/4 135/158/4 130/123/4
f 125/163/2 134/142/2 133/156/2
f 126/164/2 133/156/2 132/138/2
f 113/165/2 129/140/2 134/142/2
f 117/144/1 132/138/1 131/139/1
f 119/145/4 131/139/4 136/135/4
f 115/162/3 130/123/3 129/125/3
f 66/122/32 121/166/32 136/135/32
f 65/21/33 122/153/33 121/143/33
f 65/21/34 69/26/34 135/158/34
